<svg data-v-fde0c5aa="" xmlns="http://www.w3.org/2000/svg" viewBox="0 0 300 300" class="font"><!----><defs data-v-fde0c5aa=""><linearGradient data-v-fde0c5aa="" gradientTransform="rotate(25)" id="1925ad7c-425d-4ee2-b5b7-3c470c0a7508" x1="0%" y1="0%" x2="100%" y2="0%"><stop data-v-fde0c5aa="" offset="0%" stop-color="#181B80" stop-opacity="1"></stop><stop data-v-fde0c5aa="" offset="100%" stop-color="#181ED9" stop-opacity="1"></stop></linearGradient></defs><rect data-v-fde0c5aa="" fill="url(#1925ad7c-425d-4ee2-b5b7-3c470c0a7508)" x="0" y="0" width="300px" height="300px" class="logo-background-square"></rect><defs data-v-fde0c5aa=""><!----></defs><g data-v-fde0c5aa="" id="9c1b23a6-0ccb-4d9f-925c-47c843591320" fill="#ffffff" transform="matrix(2.3268111358977888,0,0,2.3268111358977888,36.67265992033476,134.4103658332888)"><path d="M7.80 10.22L3.15 5.52L7.10 0.57L5.95 0.57L2.34 5.11L2.34 0.57L1.43 0.57L1.43 10.22L2.34 10.22L2.34 5.98L6.55 10.22ZM13.93 3.68L13.93 4.94C13.44 4.06 12.43 3.54 11.33 3.54C9.49 3.54 8.01 4.96 8.01 6.94C8.01 8.93 9.51 10.36 11.33 10.36C12.42 10.36 13.44 9.84 13.93 8.95L13.93 10.22L14.83 10.22L14.83 3.68ZM11.40 9.51C10.02 9.51 8.90 8.39 8.90 6.93C8.90 5.49 10.02 4.40 11.40 4.40C12.70 4.40 13.93 5.39 13.93 6.97C13.93 8.48 12.75 9.51 11.40 9.51ZM20.08 10.35C21.01 10.35 21.84 10.01 22.43 9.45L21.87 8.85C21.42 9.25 20.80 9.49 20.10 9.49C18.68 9.49 17.51 8.47 17.51 6.94C17.51 5.40 18.68 4.40 20.10 4.40C20.80 4.40 21.42 4.65 21.87 5.05L22.43 4.44C21.84 3.89 21.01 3.54 20.08 3.54C18.21 3.54 16.62 4.87 16.62 6.94C16.62 9.02 18.21 10.35 20.08 10.35ZM27.58 3.54C26.49 3.54 25.45 4.07 24.98 4.97L24.98 3.68L24.08 3.68L24.08 13.40L24.98 13.40L24.98 8.95C25.47 9.84 26.47 10.36 27.58 10.36C29.41 10.36 30.90 8.95 30.90 6.96C30.90 4.97 29.41 3.54 27.58 3.54ZM27.51 9.51C26.21 9.51 24.98 8.51 24.98 6.93C24.98 5.42 26.15 4.40 27.51 4.40C28.90 4.40 30.02 5.52 30.02 6.97C30.02 8.41 28.90 9.51 27.51 9.51ZM38.79 6.93C38.79 4.86 37.44 3.54 35.57 3.54C33.73 3.54 32.24 4.86 32.24 6.93C32.24 9.00 33.73 10.36 35.57 10.36C36.81 10.36 37.93 9.77 38.50 8.72L37.73 8.39C37.30 9.10 36.50 9.51 35.60 9.51C34.29 9.51 33.31 8.72 33.15 7.32L38.78 7.32C38.79 7.20 38.79 7.06 38.79 6.93ZM33.17 6.55C33.33 5.15 34.29 4.40 35.57 4.40C36.85 4.40 37.79 5.19 37.91 6.55ZM43.50 3.54C42.48 3.54 41.78 4.17 41.45 5.28L41.45 3.68L40.54 3.68L40.54 10.22L41.45 10.22L41.45 7.76C41.45 6.15 41.93 4.41 43.48 4.41C43.72 4.41 44.03 4.45 44.37 4.59L44.53 3.74C44.28 3.61 43.86 3.54 43.50 3.54ZM55.75 10.22L51.10 5.52L55.05 0.57L53.90 0.57L50.29 5.11L50.29 0.57L49.38 0.57L49.38 10.22L50.29 10.22L50.29 5.98L54.50 10.22ZM57.18 1.90C57.57 1.90 57.88 1.64 57.88 1.27C57.88 0.90 57.57 0.63 57.18 0.63C56.81 0.63 56.49 0.90 56.49 1.27C56.49 1.64 56.81 1.90 57.18 1.90ZM56.73 10.22L57.62 10.22L57.62 3.68L56.73 3.68ZM59.86 10.22L60.76 10.22L60.76 0L59.86 0ZM63.45 1.90C63.84 1.90 64.15 1.64 64.15 1.27C64.15 0.90 63.84 0.63 63.45 0.63C63.08 0.63 62.76 0.90 62.76 1.27C62.76 1.64 63.08 1.90 63.45 1.90ZM63 10.22L63.90 10.22L63.90 3.68L63 3.68ZM71.61 3.68L71.61 4.94C71.12 4.06 70.11 3.54 69.01 3.54C67.17 3.54 65.69 4.96 65.69 6.94C65.69 8.93 67.19 10.36 69.01 10.36C70.10 10.36 71.12 9.84 71.61 8.95L71.61 10.22L72.51 10.22L72.51 3.68ZM69.08 9.51C67.70 9.51 66.58 8.39 66.58 6.93C66.58 5.49 67.70 4.40 69.08 4.40C70.38 4.40 71.61 5.39 71.61 6.97C71.61 8.48 70.43 9.51 69.08 9.51ZM77.91 3.54C77.10 3.54 76.03 3.92 75.64 4.86L75.64 3.68L74.75 3.68L74.75 10.22L75.64 10.22L75.64 6.59C75.67 5.01 76.78 4.42 77.83 4.42C78.88 4.42 79.67 5.19 79.67 6.45L79.67 10.22L80.57 10.22L80.57 6.41C80.57 4.61 79.49 3.54 77.91 3.54ZM88.82 6.93C88.82 4.86 87.46 3.54 85.60 3.54C83.75 3.54 82.26 4.86 82.26 6.93C82.26 9.00 83.75 10.36 85.60 10.36C86.83 10.36 87.95 9.77 88.52 8.72L87.75 8.39C87.32 9.10 86.52 9.51 85.62 9.51C84.31 9.51 83.33 8.72 83.17 7.32L88.80 7.32C88.82 7.20 88.82 7.06 88.82 6.93ZM83.19 6.55C83.36 5.15 84.31 4.40 85.60 4.40C86.87 4.40 87.81 5.19 87.93 6.55ZM95.98 10.22L92.36 6.52L95.16 3.68L93.91 3.68L91.46 6.19L91.46 0L90.57 0L90.57 10.22L91.46 10.22L91.46 6.86L94.77 10.22Z"></path></g><!----><!----></svg>